<svg xmlns="http://www.w3.org/2000/svg" version="1.1" xmlns:xlink="http://www.w3.org/1999/xlink" xmlns:svgjs="http://svgjs.com/svgjs" width="256px" height="256px"><svg height="256px" width="256px" version="1.1" id="SvgjsSvg1003" xmlns="http://www.w3.org/2000/svg" xmlns:xlink="http://www.w3.org/1999/xlink" viewBox="0 0 512.00 512.00" xml:space="preserve" fill="#c2c1c1" stroke="#c2c1c1" stroke-width="10.751999999999999">

<g id="SvgjsG1002" stroke-width="0"></g>

<g id="SvgjsG1001" stroke-linecap="round" stroke-linejoin="round"></g>

<g id="SvgjsG1000"> <style type="text/css"> .st0{fill:#000000;} </style> <g> <path class="st0" d="M511.636,269.628c-0.424-2.366-1.152-4.744-2.093-7.334c-1.777-4.829-4.386-10.368-7.734-16.616 c-5.848-10.908-13.928-23.889-23.514-37.629c-14.377-20.602-32.091-42.859-50.606-61.877c-9.263-9.506-18.733-18.205-28.148-25.491 c-9.433-7.28-18.8-13.17-28.111-16.974c-2.827-1.147-6.078-0.691-8.481,1.183c-2.402,1.887-3.628,4.932-3.191,7.953 c0.449,3.13,0.661,6.164,0.661,9.124c-0.006,6.139-0.904,11.951-2.53,17.484c-2.833,9.682-7.892,18.563-14.14,26.462 c-9.354,11.854-21.384,21.42-31.642,27.935c-5.12,3.258-9.797,5.764-13.376,7.432c-1.007,0.467-1.911,0.862-2.718,1.189 c0.236-1.262,0.57-2.736,0.976-4.368c0.868-3.506,2.069-7.71,3.203-12.321c1.141-4.622,2.239-9.652,2.882-14.942 c0.17-1.419,0.272-2.73,0.272-4.034c0-0.97-0.054-1.935-0.23-2.996c-0.133-0.795-0.334-1.644-0.698-2.584 c-0.279-0.71-0.655-1.468-1.201-2.244c-0.801-1.159-2.05-2.36-3.573-3.136c-0.752-0.388-1.546-0.667-2.323-0.844 c-0.782-0.176-1.529-0.248-2.221-0.242c-1.043,0-1.941,0.151-2.718,0.352c-1.48,0.4-2.536,0.94-3.458,1.474 c-0.873,0.509-1.614,1.044-2.33,1.595c-1.34,1.037-2.584,2.172-3.876,3.397c-2.239,2.148-4.586,4.592-7.031,7.074 c-1.832,1.862-3.712,3.737-5.575,5.478c-2.785,2.609-5.575,4.902-7.868,6.339c-1.153,0.722-2.16,1.226-2.912,1.499 c-0.752,0.279-1.213,0.321-1.328,0.315c-0.073,0-0.261-0.012-0.564-0.084c-0.57-0.127-1.547-0.492-2.73-1.165 c-2.087-1.159-4.75-3.209-7.45-5.648c-2.038-1.826-4.113-3.876-6.139-5.92c-1.529-1.548-3.021-3.082-4.477-4.556 c-1.092-1.104-2.154-2.166-3.197-3.173c-1.577-1.505-3.07-2.87-4.762-4.095c-0.861-0.619-1.771-1.207-2.942-1.759 c-0.588-0.273-1.256-0.534-2.044-0.752c-0.789-0.206-1.711-0.37-2.803-0.37c-0.813-0.006-1.711,0.097-2.645,0.352 c-0.812,0.218-1.638,0.564-2.39,1.013c-1.335,0.783-2.402,1.875-3.125,2.924c-0.54,0.795-0.916,1.566-1.189,2.281 c-0.406,1.073-0.612,2.026-0.734,2.918c-0.122,0.892-0.164,1.729-0.164,2.566c0,1.298,0.103,2.608,0.272,4.028 c0.989,8.05,3.003,15.536,4.659,21.809c0.837,3.124,1.583,5.939,2.087,8.268c0.121,0.552,0.224,1.068,0.316,1.559 c-1.347-0.558-3.022-1.305-4.902-2.251c-4.883-2.432-11.198-6.102-17.823-10.858c-9.936-7.122-20.553-16.713-28.482-28.118 c-3.968-5.709-7.274-11.86-9.572-18.399c-2.306-6.54-3.622-13.474-3.622-20.881c0-2.96,0.206-5.993,0.655-9.124 c0.437-3.015-0.782-6.066-3.19-7.953c-2.402-1.874-5.654-2.33-8.481-1.183c-7.814,3.191-15.657,7.856-23.555,13.571 c-13.807,9.997-27.79,23.264-41.16,37.866c-20.05,21.905-38.667,46.82-52.432,68.24c-6.879,10.72-12.539,20.541-16.579,28.827 c-2.026,4.15-3.646,7.905-4.829,11.32c-0.589,1.711-1.068,3.343-1.42,4.95C0.243,270.089,0,271.673,0,273.413 c0,1.195,0.109,2.481,0.522,3.931c0.212,0.722,0.497,1.487,0.91,2.263c0.412,0.77,0.958,1.559,1.626,2.281v-0.006 c1.474,1.595,3.228,2.742,4.926,3.524c1.59,0.728,3.154,1.177,4.659,1.487c2.839,0.564,5.544,0.698,8.329,0.782 c2.432,0.061,4.92,0.061,7.48,0.109c4.477,0.092,9.173,0.34,13.959,1.25c3.597,0.685,7.237,1.722,10.919,3.348 c5.52,2.439,11.168,6.158,16.894,12.254c5.703,6.091,11.478,14.608,16.877,26.577c1.134,2.529,3.415,4.338,6.133,4.878 c2.718,0.534,5.514-0.274,7.523-2.184c4.434-4.192,8.899-7.31,13.164-9.33c4.277-2.026,8.305-2.967,12.09-2.967 c3.324,0.012,6.503,0.704,9.767,2.257c2.444,1.177,4.932,2.851,7.443,5.174c3.767,3.47,7.571,8.408,11.138,15.057 c3.567,6.643,6.885,14.984,9.736,25.127c0.746,2.663,2.754,4.816,5.368,5.738c2.615,0.928,5.532,0.522,7.796-1.08 c6.381-4.526,12.036-7.54,16.962-9.397c4.938-1.862,9.123-2.578,12.739-2.578c2.712,0,5.12,0.401,7.389,1.098 c1.983,0.618,3.858,1.48,5.678,2.572c3.166,1.905,6.163,4.55,8.954,7.692c4.18,4.714,7.85,10.543,11.053,16.209 c1.602,2.839,3.1,5.63,4.537,8.256c1.444,2.627,2.821,5.084,4.295,7.328c1.583,2.408,4.252,3.852,7.14,3.852 c2.881,0,5.55-1.444,7.14-3.852c1.28-1.959,2.481-4.064,3.731-6.315c2.172-3.931,4.464-8.299,7.048-12.636 c1.935-3.246,4.022-6.46,6.279-9.409c3.385-4.428,7.146-8.208,11.198-10.768c2.026-1.28,4.125-2.275,6.357-2.961 c2.232-0.686,4.617-1.062,7.28-1.068c3.616,0.006,7.802,0.722,12.74,2.578c4.926,1.856,10.58,4.871,16.962,9.397 c2.269,1.602,5.18,2.008,7.795,1.08c2.614-0.922,4.623-3.075,5.369-5.738c2.536-9.015,5.436-16.61,8.56-22.846 c2.336-4.683,4.799-8.608,7.298-11.823c3.749-4.828,7.559-8.044,11.235-10.058c3.695-2.002,7.256-2.876,10.992-2.888 c3.791,0,7.819,0.94,12.096,2.967c4.271,2.026,8.736,5.138,13.164,9.336c2.014,1.904,4.81,2.712,7.528,2.178 c2.711-0.54,4.992-2.348,6.133-4.878c3.567-7.904,7.292-14.31,11.059-19.498c3.294-4.537,6.618-8.147,9.894-11.047 c5.764-5.071,11.405-8.02,16.938-9.876c8.298-2.779,16.446-2.979,23.914-3.051c1.868-0.024,3.694-0.043,5.502-0.103 c2.712-0.116,5.375-0.304,8.184-0.983c1.408-0.352,2.864-0.844,4.332-1.601c1.468-0.752,2.942-1.802,4.21-3.173 c0.674-0.722,1.213-1.504,1.626-2.275c0.62-1.171,0.959-2.293,1.165-3.325c0.206-1.031,0.267-1.971,0.267-2.869 C512,272.085,511.855,270.853,511.636,269.628z M490.252,270.605c-4.276,0.103-10.003-0.018-16.53,0.612 c-4.896,0.48-10.264,1.395-15.858,3.215c-4.198,1.365-8.517,3.24-12.824,5.782c-6.46,3.809-12.873,9.136-18.897,16.331 c-4.168,4.98-8.147,10.871-11.908,17.774c-2.857-2.002-5.8-3.737-8.82-5.181c-6.2-2.942-12.758-4.617-19.424-4.61 c-5.824-0.012-11.678,1.304-17.156,3.937c-4.113,1.972-8.02,4.665-11.647,8.026c-5.448,5.041-10.313,11.544-14.596,19.528 c-2.815,5.247-5.387,11.156-7.704,17.731c-3.798-2.141-7.486-3.888-11.077-5.247c-6.576-2.481-12.854-3.676-18.77-3.676 c-4.404,0-8.596,0.662-12.46,1.868c-3.385,1.056-6.527,2.512-9.402,4.246c-5.047,3.04-9.294,6.886-12.94,10.998 c-5.466,6.188-9.664,13.006-13.134,19.121c-0.376,0.674-0.74,1.323-1.104,1.978c-1.007-1.826-2.087-3.725-3.24-5.666 c-2.166-3.628-4.598-7.389-7.401-11.053c-4.204-5.484-9.258-10.774-15.615-14.814c-3.178-2.014-6.685-3.694-10.5-4.865 c-3.816-1.171-7.941-1.82-12.285-1.814c-5.908-0.006-12.193,1.195-18.769,3.676c-3.586,1.359-7.274,3.1-11.065,5.242 c-1.935-5.46-4.034-10.464-6.303-15.002c-2.772-5.55-5.806-10.428-9.087-14.662c-4.926-6.339-10.459-11.253-16.532-14.565 c-6.054-3.331-12.642-4.999-19.194-4.993c-6.661,0-13.224,1.675-19.412,4.617c-3.021,1.438-5.964,3.172-8.82,5.181 c-2.536-4.671-5.181-8.869-7.911-12.636c-3.967-5.471-8.141-10.04-12.418-13.825c-7.486-6.618-15.342-10.78-22.834-13.273 c-11.24-3.742-21.584-3.828-29.124-3.931c-1.887-0.012-3.592-0.037-5.06-0.091c-1.019-0.036-1.917-0.097-2.681-0.176 c0.2-0.655,0.448-1.395,0.74-2.202c1.353-3.676,3.664-8.669,6.758-14.438c5.418-10.106,13.2-22.646,22.47-35.925 c13.898-19.934,31.156-41.591,48.834-59.729c8.832-9.063,17.768-17.253,26.364-23.89c3.992-3.094,7.911-5.83,11.696-8.19 c0.327,6.364,1.407,12.472,3.1,18.241c3.591,12.242,9.821,23.01,17.138,32.261c10.986,13.874,24.392,24.435,35.87,31.745 c5.745,3.658,11.01,6.492,15.342,8.512c2.178,1.007,4.113,1.814,5.848,2.433c0.873,0.309,1.686,0.57,2.511,0.794 c0.825,0.219,1.626,0.401,2.682,0.516l0.018,0.006c0.728,0.066,1.45,0.103,2.183,0.103c1.814,0,3.731-0.236,5.672-0.971 c1.456-0.546,2.906-1.402,4.125-2.517c0.91-0.831,1.68-1.796,2.281-2.791c0.898-1.486,1.413-3.003,1.71-4.416 c0.303-1.408,0.395-2.736,0.395-3.998c0-1.498-0.134-2.924-0.334-4.355c-0.352-2.494-0.922-4.999-1.565-7.602 c-0.849-3.403-1.844-6.988-2.785-10.67c1.104,1.092,2.239,2.19,3.404,3.288c3.24,3.008,6.673,5.945,10.464,8.335 c1.898,1.194,3.901,2.256,6.096,3.063c2.184,0.801,4.598,1.365,7.238,1.371c1.571,0,3.063-0.206,4.471-0.534 c2.645-0.631,4.999-1.68,7.195-2.906c3.834-2.172,7.255-4.938,10.494-7.838c1.748-1.571,3.434-3.185,5.035-4.774 c-0.425,1.668-0.868,3.325-1.298,4.944c-0.831,3.125-1.638,6.128-2.269,9.021c-0.316,1.45-0.582,2.875-0.789,4.301 c-0.2,1.431-0.334,2.857-0.334,4.355c0.006,1.499,0.127,3.082,0.588,4.792c0.34,1.28,0.873,2.639,1.729,3.95 c0.637,0.983,1.444,1.935,2.384,2.736c1.408,1.213,3.088,2.069,4.72,2.554c1.638,0.492,3.227,0.662,4.762,0.668 c0.734-0.006,1.462-0.043,2.19-0.109l0.012-0.006c0.813-0.085,1.456-0.219,2.099-0.37c1.219-0.29,2.402-0.679,3.724-1.17 c2.457-0.916,5.35-2.202,8.663-3.883c5.769-2.942,12.764-7.086,20.116-12.43c11.011-8.014,22.822-18.697,32.085-32.152 c4.623-6.728,8.596-14.159,11.423-22.276c2.421-6.94,3.979-14.378,4.38-22.228c2.475,1.535,5.01,3.24,7.583,5.102 c12.436,8.997,25.758,21.554,38.57,35.567c19.254,21.02,37.441,45.346,50.66,65.941c6.606,10.289,11.981,19.668,15.608,27.087 c1.808,3.7,3.173,6.922,4.022,9.39c0.158,0.467,0.298,0.892,0.419,1.298C493.17,270.496,491.811,270.568,490.252,270.605z"></path> </g> </g>

</svg><style>@media (prefers-color-scheme: light) { :root { filter: none; } }
</style></svg>